<svg width="117" height="77" viewBox="0 0 117 77" fill="none" xmlns="http://www.w3.org/2000/svg">
<path d="M3.06 73V65.224H0.66V64.24H6.54V65.224H4.14V73H3.06ZM8.29931 73V64.24H9.37931V67.66H9.39131C9.44731 67.22 9.62731 66.88 9.93131 66.64C10.2353 66.4 10.6393 66.28 11.1433 66.28C11.8073 66.28 12.3353 66.484 12.7273 66.892C13.1193 67.3 13.3153 67.856 13.3153 68.56V73H12.2353V68.74C12.2353 68.244 12.1073 67.864 11.8513 67.6C11.6033 67.328 11.2633 67.192 10.8313 67.192C10.3833 67.192 10.0273 67.332 9.76331 67.612C9.50731 67.892 9.37931 68.288 9.37931 68.8V73H8.29931ZM17.9906 73.12C17.2146 73.12 16.5866 72.888 16.1066 72.424C15.6346 71.952 15.3986 71.304 15.3986 70.48V68.92C15.3986 68.096 15.6346 67.452 16.1066 66.988C16.5866 66.516 17.2146 66.28 17.9906 66.28C18.5106 66.28 18.9626 66.384 19.3466 66.592C19.7386 66.8 20.0426 67.092 20.2586 67.468C20.4746 67.844 20.5826 68.288 20.5826 68.8V69.976H16.4546V70.6C16.4546 71.088 16.5946 71.476 16.8746 71.764C17.1546 72.044 17.5266 72.184 17.9906 72.184C18.3906 72.184 18.7186 72.108 18.9746 71.956C19.2386 71.796 19.3986 71.584 19.4546 71.32H20.5346C20.4626 71.872 20.1946 72.312 19.7306 72.64C19.2666 72.96 18.6866 73.12 17.9906 73.12ZM16.4546 69.136H19.5266V68.8C19.5266 68.28 19.3906 67.88 19.1186 67.6C18.8546 67.312 18.4786 67.168 17.9906 67.168C17.5026 67.168 17.1226 67.312 16.8506 67.6C16.5866 67.88 16.4546 68.28 16.4546 68.8V69.136ZM29.6453 73V64.24H31.2413L32.3573 68.032L33.5213 64.24H35.1172V73H34.0733V68.86C34.0733 68.468 34.0773 68.02 34.0853 67.516C34.1013 67.004 34.1213 66.488 34.1453 65.968C34.1693 65.448 34.1973 64.98 34.2293 64.564L32.8133 69.088H31.8773L30.5213 64.672C30.5853 65.264 30.6293 65.912 30.6533 66.616C30.6773 67.32 30.6893 68.068 30.6893 68.86V73H29.6453ZM39.5766 73.12C38.8006 73.12 38.1726 72.888 37.6926 72.424C37.2206 71.952 36.9846 71.304 36.9846 70.48V68.92C36.9846 68.096 37.2206 67.452 37.6926 66.988C38.1726 66.516 38.8006 66.28 39.5766 66.28C40.0966 66.28 40.5486 66.384 40.9326 66.592C41.3246 66.8 41.6286 67.092 41.8446 67.468C42.0606 67.844 42.1686 68.288 42.1686 68.8V69.976H38.0406V70.6C38.0406 71.088 38.1806 71.476 38.4606 71.764C38.7406 72.044 39.1126 72.184 39.5766 72.184C39.9766 72.184 40.3046 72.108 40.5606 71.956C40.8246 71.796 40.9846 71.584 41.0406 71.32H42.1206C42.0486 71.872 41.7806 72.312 41.3166 72.64C40.8526 72.96 40.2726 73.12 39.5766 73.12ZM38.0406 69.136H41.1126V68.8C41.1126 68.28 40.9766 67.88 40.7046 67.6C40.4406 67.312 40.0646 67.168 39.5766 67.168C39.0886 67.168 38.7086 67.312 38.4366 67.6C38.1726 67.88 38.0406 68.28 38.0406 68.8V69.136ZM44.5159 73V66.4H45.5959V67.66H45.6199C45.6759 67.236 45.8559 66.9 46.1599 66.652C46.4639 66.404 46.8719 66.28 47.3839 66.28C48.0719 66.28 48.5999 66.488 48.9679 66.904C49.3439 67.312 49.5319 67.896 49.5319 68.656V69.22H48.4519V68.656C48.4519 67.696 47.9839 67.216 47.0479 67.216C46.5759 67.216 46.2159 67.352 45.9679 67.624C45.7199 67.896 45.5959 68.288 45.5959 68.8V73H44.5159ZM51.5312 73V64.24H52.6112V69.124H53.8712L55.7192 66.4H56.9552L54.8312 69.544L57.0752 73H55.8152L53.8952 70.06H52.6112V73H51.5312ZM62.1225 73C61.5385 73 61.0705 72.832 60.7185 72.496C60.3745 72.152 60.2025 71.7 60.2025 71.14V65.224H57.9225V64.24H61.2825V71.14C61.2825 71.412 61.3585 71.628 61.5105 71.788C61.6625 71.94 61.8665 72.016 62.1225 72.016H64.1625V73H62.1225ZM68.3578 73.12C67.5818 73.12 66.9538 72.888 66.4738 72.424C66.0018 71.952 65.7658 71.304 65.7658 70.48V68.92C65.7658 68.096 66.0018 67.452 66.4738 66.988C66.9538 66.516 67.5818 66.28 68.3578 66.28C68.8778 66.28 69.3298 66.384 69.7138 66.592C70.1058 66.8 70.4098 67.092 70.6258 67.468C70.8418 67.844 70.9498 68.288 70.9498 68.8V69.976H66.8218V70.6C66.8218 71.088 66.9618 71.476 67.2418 71.764C67.5218 72.044 67.8938 72.184 68.3578 72.184C68.7578 72.184 69.0858 72.108 69.3418 71.956C69.6058 71.796 69.7658 71.584 69.8218 71.32H70.9018C70.8298 71.872 70.5618 72.312 70.0978 72.64C69.6338 72.96 69.0538 73.12 68.3578 73.12ZM66.8218 69.136H69.8938V68.8C69.8938 68.28 69.7578 67.88 69.4858 67.6C69.2218 67.312 68.8458 67.168 68.3578 67.168C67.8698 67.168 67.4898 67.312 67.2178 67.6C66.9538 67.88 66.8218 68.28 66.8218 68.8V69.136ZM82.2084 73V65.224H79.8084V64.24H85.6884V65.224H83.2884V73H82.2084ZM87.6878 73V66.4H88.7678V67.66H88.7918C88.8478 67.236 89.0278 66.9 89.3318 66.652C89.6358 66.404 90.0438 66.28 90.5558 66.28C91.2438 66.28 91.7718 66.488 92.1398 66.904C92.5158 67.312 92.7038 67.896 92.7038 68.656V69.22H91.6238V68.656C91.6238 67.696 91.1558 67.216 90.2198 67.216C89.7478 67.216 89.3878 67.352 89.1398 67.624C88.8918 67.896 88.7678 68.288 88.7678 68.8V73H87.6878ZM97.1391 73.12C96.3631 73.12 95.7351 72.888 95.2551 72.424C94.7831 71.952 94.5471 71.304 94.5471 70.48V68.92C94.5471 68.096 94.7831 67.452 95.2551 66.988C95.7351 66.516 96.3631 66.28 97.1391 66.28C97.6591 66.28 98.1111 66.384 98.4951 66.592C98.8871 66.8 99.1911 67.092 99.4071 67.468C99.6231 67.844 99.7311 68.288 99.7311 68.8V69.976H95.6031V70.6C95.6031 71.088 95.7431 71.476 96.0231 71.764C96.3031 72.044 96.6751 72.184 97.1391 72.184C97.5391 72.184 97.8671 72.108 98.1231 71.956C98.3871 71.796 98.5471 71.584 98.6031 71.32H99.6831C99.6111 71.872 99.3431 72.312 98.8791 72.64C98.4151 72.96 97.8351 73.12 97.1391 73.12ZM95.6031 69.136H98.6751V68.8C98.6751 68.28 98.5391 67.88 98.2671 67.6C98.0031 67.312 97.6271 67.168 97.1391 67.168C96.6511 67.168 96.2711 67.312 95.9991 67.6C95.7351 67.88 95.6031 68.28 95.6031 68.8V69.136ZM104.334 73.12C103.558 73.12 102.93 72.888 102.45 72.424C101.978 71.952 101.742 71.304 101.742 70.48V68.92C101.742 68.096 101.978 67.452 102.45 66.988C102.93 66.516 103.558 66.28 104.334 66.28C104.854 66.28 105.306 66.384 105.69 66.592C106.082 66.8 106.386 67.092 106.602 67.468C106.818 67.844 106.926 68.288 106.926 68.8V69.976H102.798V70.6C102.798 71.088 102.938 71.476 103.218 71.764C103.498 72.044 103.87 72.184 104.334 72.184C104.734 72.184 105.062 72.108 105.318 71.956C105.582 71.796 105.742 71.584 105.798 71.32H106.878C106.806 71.872 106.538 72.312 106.074 72.64C105.61 72.96 105.03 73.12 104.334 73.12ZM102.798 69.136H105.87V68.8C105.87 68.28 105.734 67.88 105.462 67.6C105.198 67.312 104.822 67.168 104.334 67.168C103.846 67.168 103.466 67.312 103.194 67.6C102.93 67.88 102.798 68.28 102.798 68.8V69.136ZM111.266 73.096C110.53 73.096 109.958 72.932 109.55 72.604C109.15 72.268 108.95 71.796 108.95 71.188H110.03C110.03 71.492 110.138 71.732 110.354 71.908C110.57 72.076 110.874 72.16 111.266 72.16H111.794C112.194 72.16 112.502 72.072 112.718 71.896C112.942 71.72 113.054 71.472 113.054 71.152C113.054 70.584 112.794 70.264 112.274 70.192L110.45 69.928C110.002 69.864 109.654 69.68 109.406 69.376C109.158 69.064 109.034 68.656 109.034 68.152C109.034 67.576 109.23 67.124 109.622 66.796C110.022 66.468 110.57 66.304 111.266 66.304H111.794C112.434 66.304 112.954 66.464 113.354 66.784C113.762 67.096 113.982 67.508 114.014 68.02H112.922C112.906 67.788 112.794 67.596 112.586 67.444C112.386 67.292 112.122 67.216 111.794 67.216H111.266C110.898 67.216 110.61 67.3 110.402 67.468C110.194 67.636 110.09 67.864 110.09 68.152C110.09 68.616 110.302 68.88 110.726 68.944L112.43 69.184C113.55 69.344 114.11 70 114.11 71.152C114.11 71.768 113.906 72.248 113.498 72.592C113.098 72.928 112.53 73.096 111.794 73.096H111.266Z" fill="#727272"/>
<circle cx="57.5" cy="6.5" r="6.35" fill="#A1B7EF" stroke="#727272" stroke-width="0.3"/>
<circle cx="38.5" cy="49.5" r="6.35" fill="#DAE2F5" stroke="#727272" stroke-width="0.3"/>
<circle cx="7.5" cy="49.5" r="6.35" fill="#DAE2F5" stroke="#727272" stroke-width="0.3"/>
<circle cx="110.5" cy="49.5" r="6.35" fill="#A1B7EF" stroke="#727272" stroke-width="0.3"/>
<circle cx="74.5" cy="49.5" r="6.35" fill="#A1B7EF" stroke="#727272" stroke-width="0.3"/>
<circle cx="23.5" cy="29.5" r="6.35" fill="#A1B7EF" stroke="#727272" stroke-width="0.3"/>
<circle cx="93.5" cy="29.5" r="6.35" fill="#A1B7EF" stroke="#727272" stroke-width="0.3"/>
<path d="M28.9205 25.8728L52 9.5" stroke="#727272" stroke-width="0.3"/>
<path d="M10.5 44L19 34" stroke="#727272" stroke-width="0.3"/>
<path d="M28 34L35.5 44" stroke="#727272" stroke-width="0.3"/>
<path d="M63 9.5L88 26" stroke="#727272" stroke-width="0.3"/>
<path d="M89 34L77.5 44" stroke="#727272" stroke-width="0.3"/>
<path d="M98 34L106.894 44.1061" stroke="#727272" stroke-width="0.3"/>
</svg>
