<svg width="18" height="23" viewBox="0 0 18 23" fill="none" xmlns="http://www.w3.org/2000/svg">
<path d="M10.4516 8L7.87097 15.0968" stroke="#828282" stroke-linecap="round"/>
<path d="M6.25806 9.29034L4 11.5484" stroke="#828282" stroke-linecap="round"/>
<path d="M6.25806 13.4839L4 11.5484" stroke="#828282" stroke-linecap="round"/>
<path d="M11.7419 9.29034L14 11.5484" stroke="#828282" stroke-linecap="round"/>
<path d="M11.7419 13.4839L14 11.5484" stroke="#828282" stroke-linecap="round"/>
<path d="M9 1H15.5C16.5 1 17 1.5 17 2.5C17 3.7 17 15.5 17 21C17 22 16.6623 22.5 15.5 22.5C13.9 22.5 10.3333 22.5 9 22.5" stroke="#727272"/>
<path d="M9 1H2.5C1.5 1 1 1.5 1 2.5C1 3.7 1 15.5 1 21C1 22 1.33772 22.5 2.5 22.5C4.1 22.5 7.66667 22.5 9 22.5" stroke="#727272"/>
</svg>
