<svg width="18" height="23" viewBox="0 0 18 23" fill="none" xmlns="http://www.w3.org/2000/svg">
<path d="M7.66446 5.23138H13.0793C13.9124 5.23138 14.3289 5.62808 14.3289 6.42147C14.3289 7.37353 14.3289 16.7355 14.3289 21.0992C14.3289 21.8925 14.0476 22.2892 13.0793 22.2892C11.7464 22.2892 8.7752 22.2892 7.66446 22.2892" stroke="#727272"/>
<path d="M7.66446 5.23138H2.24958C1.41652 5.23138 0.999995 5.62808 0.999995 6.42147C0.999995 7.37353 0.999995 16.7355 0.999995 21.0992C0.999995 21.8925 1.28134 22.2892 2.24958 22.2892C3.58247 22.2892 6.55372 22.2892 7.66446 22.2892" stroke="#727272"/>
<path d="M10.3356 1H15.7504C16.5835 1 17 1.39669 17 2.19008C17 3.14215 17 12.5041 17 16.8678C17 17.6612 16.7187 18.0579 15.7504 18.0579C14.4175 18.0579 11.4463 18.0579 10.3356 18.0579" stroke="#727272"/>
<path d="M10.3356 1H4.92068C4.08762 1 3.67109 1.39669 3.67109 2.19008C3.67109 3.14215 3.67109 12.5041 3.67109 16.8678C3.67109 17.6612 3.95243 18.0579 4.92068 18.0579C6.25357 18.0579 9.22481 18.0579 10.3356 18.0579" stroke="#727272"/>
</svg>
