<svg width="115" height="10" viewBox="0 0 115 10" fill="none" xmlns="http://www.w3.org/2000/svg">
<path d="M3.06 9V1.224H0.66V0.24H6.54V1.224H4.14V9H3.06ZM8.29931 9V0.24H9.37931V3.66H9.39131C9.44731 3.22 9.62731 2.88 9.93131 2.64C10.2353 2.4 10.6393 2.28 11.1433 2.28C11.8073 2.28 12.3353 2.484 12.7273 2.892C13.1193 3.3 13.3153 3.856 13.3153 4.56V9H12.2353V4.74C12.2353 4.244 12.1073 3.864 11.8513 3.6C11.6033 3.328 11.2633 3.192 10.8313 3.192C10.3833 3.192 10.0273 3.332 9.76331 3.612C9.50731 3.892 9.37931 4.288 9.37931 4.8V9H8.29931ZM17.9906 9.12C17.2146 9.12 16.5866 8.888 16.1066 8.424C15.6346 7.952 15.3986 7.304 15.3986 6.48V4.92C15.3986 4.096 15.6346 3.452 16.1066 2.988C16.5866 2.516 17.2146 2.28 17.9906 2.28C18.5106 2.28 18.9626 2.384 19.3466 2.592C19.7386 2.8 20.0426 3.092 20.2586 3.468C20.4746 3.844 20.5826 4.288 20.5826 4.8V5.976H16.4546V6.6C16.4546 7.088 16.5946 7.476 16.8746 7.764C17.1546 8.044 17.5266 8.184 17.9906 8.184C18.3906 8.184 18.7186 8.108 18.9746 7.956C19.2386 7.796 19.3986 7.584 19.4546 7.32H20.5346C20.4626 7.872 20.1946 8.312 19.7306 8.64C19.2666 8.96 18.6866 9.12 17.9906 9.12ZM16.4546 5.136H19.5266V4.8C19.5266 4.28 19.3906 3.88 19.1186 3.6C18.8546 3.312 18.4786 3.168 17.9906 3.168C17.5026 3.168 17.1226 3.312 16.8506 3.6C16.5866 3.88 16.4546 4.28 16.4546 4.8V5.136ZM29.6453 9V0.24H31.2413L32.3573 4.032L33.5213 0.24H35.1172V9H34.0733V4.86C34.0733 4.468 34.0773 4.02 34.0853 3.516C34.1013 3.004 34.1213 2.488 34.1453 1.968C34.1693 1.448 34.1973 0.98 34.2293 0.564L32.8133 5.088H31.8773L30.5213 0.672C30.5853 1.264 30.6293 1.912 30.6533 2.616C30.6773 3.32 30.6893 4.068 30.6893 4.86V9H29.6453ZM39.5766 9.12C38.8006 9.12 38.1726 8.888 37.6926 8.424C37.2206 7.952 36.9846 7.304 36.9846 6.48V4.92C36.9846 4.096 37.2206 3.452 37.6926 2.988C38.1726 2.516 38.8006 2.28 39.5766 2.28C40.0966 2.28 40.5486 2.384 40.9326 2.592C41.3246 2.8 41.6286 3.092 41.8446 3.468C42.0606 3.844 42.1686 4.288 42.1686 4.8V5.976H38.0406V6.6C38.0406 7.088 38.1806 7.476 38.4606 7.764C38.7406 8.044 39.1126 8.184 39.5766 8.184C39.9766 8.184 40.3046 8.108 40.5606 7.956C40.8246 7.796 40.9846 7.584 41.0406 7.32H42.1206C42.0486 7.872 41.7806 8.312 41.3166 8.64C40.8526 8.96 40.2726 9.12 39.5766 9.12ZM38.0406 5.136H41.1126V4.8C41.1126 4.28 40.9766 3.88 40.7046 3.6C40.4406 3.312 40.0646 3.168 39.5766 3.168C39.0886 3.168 38.7086 3.312 38.4366 3.6C38.1726 3.88 38.0406 4.28 38.0406 4.8V5.136ZM44.5159 9V2.4H45.5959V3.66H45.6199C45.6759 3.236 45.8559 2.9 46.1599 2.652C46.4639 2.404 46.8719 2.28 47.3839 2.28C48.0719 2.28 48.5999 2.488 48.9679 2.904C49.3439 3.312 49.5319 3.896 49.5319 4.656V5.22H48.4519V4.656C48.4519 3.696 47.9839 3.216 47.0479 3.216C46.5759 3.216 46.2159 3.352 45.9679 3.624C45.7199 3.896 45.5959 4.288 45.5959 4.8V9H44.5159ZM51.5312 9V0.24H52.6112V5.124H53.8712L55.7192 2.4H56.9552L54.8312 5.544L57.0752 9H55.8152L53.8952 6.06H52.6112V9H51.5312ZM62.1225 9C61.5385 9 61.0705 8.832 60.7185 8.496C60.3745 8.152 60.2025 7.7 60.2025 7.14V1.224H57.9225V0.24H61.2825V7.14C61.2825 7.412 61.3585 7.628 61.5105 7.788C61.6625 7.94 61.8665 8.016 62.1225 8.016H64.1625V9H62.1225ZM68.3578 9.12C67.5818 9.12 66.9538 8.888 66.4738 8.424C66.0018 7.952 65.7658 7.304 65.7658 6.48V4.92C65.7658 4.096 66.0018 3.452 66.4738 2.988C66.9538 2.516 67.5818 2.28 68.3578 2.28C68.8778 2.28 69.3298 2.384 69.7138 2.592C70.1058 2.8 70.4098 3.092 70.6258 3.468C70.8418 3.844 70.9498 4.288 70.9498 4.8V5.976H66.8218V6.6C66.8218 7.088 66.9618 7.476 67.2418 7.764C67.5218 8.044 67.8938 8.184 68.3578 8.184C68.7578 8.184 69.0858 8.108 69.3418 7.956C69.6058 7.796 69.7658 7.584 69.8218 7.32H70.9018C70.8298 7.872 70.5618 8.312 70.0978 8.64C69.6338 8.96 69.0538 9.12 68.3578 9.12ZM66.8218 5.136H69.8938V4.8C69.8938 4.28 69.7578 3.88 69.4858 3.6C69.2218 3.312 68.8458 3.168 68.3578 3.168C67.8698 3.168 67.4898 3.312 67.2178 3.6C66.9538 3.88 66.8218 4.28 66.8218 4.8V5.136ZM82.2084 9V1.224H79.8084V0.24H85.6884V1.224H83.2884V9H82.2084ZM87.6878 9V2.4H88.7678V3.66H88.7918C88.8478 3.236 89.0278 2.9 89.3318 2.652C89.6358 2.404 90.0438 2.28 90.5558 2.28C91.2438 2.28 91.7718 2.488 92.1398 2.904C92.5158 3.312 92.7038 3.896 92.7038 4.656V5.22H91.6238V4.656C91.6238 3.696 91.1558 3.216 90.2198 3.216C89.7478 3.216 89.3878 3.352 89.1398 3.624C88.8918 3.896 88.7678 4.288 88.7678 4.8V9H87.6878ZM97.1391 9.12C96.3631 9.12 95.7351 8.888 95.2551 8.424C94.7831 7.952 94.5471 7.304 94.5471 6.48V4.92C94.5471 4.096 94.7831 3.452 95.2551 2.988C95.7351 2.516 96.3631 2.28 97.1391 2.28C97.6591 2.28 98.1111 2.384 98.4951 2.592C98.8871 2.8 99.1911 3.092 99.4071 3.468C99.6231 3.844 99.7311 4.288 99.7311 4.8V5.976H95.6031V6.6C95.6031 7.088 95.7431 7.476 96.0231 7.764C96.3031 8.044 96.6751 8.184 97.1391 8.184C97.5391 8.184 97.8671 8.108 98.1231 7.956C98.3871 7.796 98.5471 7.584 98.6031 7.32H99.6831C99.6111 7.872 99.3431 8.312 98.8791 8.64C98.4151 8.96 97.8351 9.12 97.1391 9.12ZM95.6031 5.136H98.6751V4.8C98.6751 4.28 98.5391 3.88 98.2671 3.6C98.0031 3.312 97.6271 3.168 97.1391 3.168C96.6511 3.168 96.2711 3.312 95.9991 3.6C95.7351 3.88 95.6031 4.28 95.6031 4.8V5.136ZM104.334 9.12C103.558 9.12 102.93 8.888 102.45 8.424C101.978 7.952 101.742 7.304 101.742 6.48V4.92C101.742 4.096 101.978 3.452 102.45 2.988C102.93 2.516 103.558 2.28 104.334 2.28C104.854 2.28 105.306 2.384 105.69 2.592C106.082 2.8 106.386 3.092 106.602 3.468C106.818 3.844 106.926 4.288 106.926 4.8V5.976H102.798V6.6C102.798 7.088 102.938 7.476 103.218 7.764C103.498 8.044 103.87 8.184 104.334 8.184C104.734 8.184 105.062 8.108 105.318 7.956C105.582 7.796 105.742 7.584 105.798 7.32H106.878C106.806 7.872 106.538 8.312 106.074 8.64C105.61 8.96 105.03 9.12 104.334 9.12ZM102.798 5.136H105.87V4.8C105.87 4.28 105.734 3.88 105.462 3.6C105.198 3.312 104.822 3.168 104.334 3.168C103.846 3.168 103.466 3.312 103.194 3.6C102.93 3.88 102.798 4.28 102.798 4.8V5.136ZM111.266 9.096C110.53 9.096 109.958 8.932 109.55 8.604C109.15 8.268 108.95 7.796 108.95 7.188H110.03C110.03 7.492 110.138 7.732 110.354 7.908C110.57 8.076 110.874 8.16 111.266 8.16H111.794C112.194 8.16 112.502 8.072 112.718 7.896C112.942 7.72 113.054 7.472 113.054 7.152C113.054 6.584 112.794 6.264 112.274 6.192L110.45 5.928C110.002 5.864 109.654 5.68 109.406 5.376C109.158 5.064 109.034 4.656 109.034 4.152C109.034 3.576 109.23 3.124 109.622 2.796C110.022 2.468 110.57 2.304 111.266 2.304H111.794C112.434 2.304 112.954 2.464 113.354 2.784C113.762 3.096 113.982 3.508 114.014 4.02H112.922C112.906 3.788 112.794 3.596 112.586 3.444C112.386 3.292 112.122 3.216 111.794 3.216H111.266C110.898 3.216 110.61 3.3 110.402 3.468C110.194 3.636 110.09 3.864 110.09 4.152C110.09 4.616 110.302 4.88 110.726 4.944L112.43 5.184C113.55 5.344 114.11 6 114.11 7.152C114.11 7.768 113.906 8.248 113.498 8.592C113.098 8.928 112.53 9.096 111.794 9.096H111.266Z" fill="#727272"/>
</svg>
